<svg xmlns="http://www.w3.org/2000/svg" width="636.289" height="323.787" viewBox="0 0 636.289 323.787"><defs><clipPath id="a" clipPathUnits="userSpaceOnUse"><path d="M-170.462 104.76h534.246v-299.992h-534.246Z"/></clipPath><clipPath id="b" clipPathUnits="userSpaceOnUse"><path d="M-325.496 238.915H208.75v-299.99h-534.246Z"/></clipPath><clipPath id="c" clipPathUnits="userSpaceOnUse"><path d="M-195.225 48.895h534.246v-299.991h-534.246Z"/></clipPath><clipPath id="d" clipPathUnits="userSpaceOnUse"><path d="M-174.904 48.685h534.246v-299.991h-534.246Z"/></clipPath><clipPath id="e" clipPathUnits="userSpaceOnUse"><path d="M-182.347 42.406h534.246v-299.991h-534.246Z"/></clipPath><clipPath id="f" clipPathUnits="userSpaceOnUse"><path d="M-391.03 156.337h534.247v-299.99H-391.03Z"/></clipPath><clipPath id="g" clipPathUnits="userSpaceOnUse"><path d="M-374.773 156.17h534.246v-299.992h-534.246Z"/></clipPath><clipPath id="h" clipPathUnits="userSpaceOnUse"><path d="M-380.727 151.146H153.52v-299.99h-534.246Z"/></clipPath><clipPath id="i" clipPathUnits="userSpaceOnUse"><path d="M-80.087 227.703h534.246v-299.99H-80.087Z"/></clipPath><clipPath id="j" clipPathUnits="userSpaceOnUse"><path d="M-59.767 227.493H474.48v-299.99H-59.767Z"/></clipPath><clipPath id="k" clipPathUnits="userSpaceOnUse"><path d="M-67.21 221.215h534.246v-299.99H-67.21Z"/></clipPath><clipPath id="l" clipPathUnits="userSpaceOnUse"><path d="M-117.658 82.677h534.246v-299.99h-534.246Z"/></clipPath><clipPath id="m" clipPathUnits="userSpaceOnUse"><path d="M-93.273 82.426h534.246v-299.991H-93.273Z"/></clipPath><clipPath id="n" clipPathUnits="userSpaceOnUse"><path d="M-102.204 74.89h534.246V-225.1h-534.246Z"/></clipPath><clipPath id="o" clipPathUnits="userSpaceOnUse"><path d="M-250.52 91.609h534.245v-299.991H-250.52Z"/></clipPath><clipPath id="p" clipPathUnits="userSpaceOnUse"><path d="M-234.264 91.441h534.246v-299.99h-534.246Z"/></clipPath><clipPath id="q" clipPathUnits="userSpaceOnUse"><path d="M-240.218 86.418h534.246v-299.99h-534.246Z"/></clipPath><clipPath id="r" clipPathUnits="userSpaceOnUse"><path d="M-340.77 115.245h534.246v-299.99H-340.77Z"/></clipPath><clipPath id="s" clipPathUnits="userSpaceOnUse"><path d="M-318.417 115.014h534.246v-299.99h-534.246Z"/></clipPath><clipPath id="t" clipPathUnits="userSpaceOnUse"><path d="M-326.604 108.108h534.246v-299.991h-534.246Z"/></clipPath><clipPath id="u" clipPathUnits="userSpaceOnUse"><path d="M-61.028 155.11h534.246v-299.991H-61.028Z"/></clipPath><clipPath id="v" clipPathUnits="userSpaceOnUse"><path d="M-44.77 154.942h534.245V-145.05H-44.77Z"/></clipPath><clipPath id="w" clipPathUnits="userSpaceOnUse"><path d="M-50.725 149.918H483.52v-299.99H-50.725Z"/></clipPath><clipPath id="x" clipPathUnits="userSpaceOnUse"><path d="M-174.904 75.297h534.246v-299.99h-534.246Z"/></clipPath><clipPath id="y" clipPathUnits="userSpaceOnUse"><path d="M-168.899 120.234h534.246v-299.991h-534.246Z"/></clipPath><clipPath id="z" clipPathUnits="userSpaceOnUse"><path d="M-150.197 146.615h534.246v-299.991h-534.246Z"/></clipPath><clipPath id="A" clipPathUnits="userSpaceOnUse"><path d="M-156.203 144.857h534.246v-299.99h-534.246Z"/></clipPath><clipPath id="B" clipPathUnits="userSpaceOnUse"><path d="M-207.611 165.084h534.246v-299.99h-534.246Z"/></clipPath><clipPath id="C" clipPathUnits="userSpaceOnUse"><path d="M-213.617 163.326H320.63v-299.99h-534.246Z"/></clipPath><clipPath id="D" clipPathUnits="userSpaceOnUse"><path d="M-138.56 201.105h534.245V-98.886H-138.56Z"/></clipPath><clipPath id="E" clipPathUnits="userSpaceOnUse"><path d="M-132.556 202.862H401.69V-97.13h-534.246Z"/></clipPath><clipPath id="G" clipPathUnits="userSpaceOnUse"><path d="M-59.003 0h75.14v-53.974h-75.14z"/></clipPath><clipPath id="F" clipPathUnits="userSpaceOnUse"><path d="M0 0h712.328v399.988H0Z"/></clipPath><clipPath id="I" clipPathUnits="userSpaceOnUse"><path d="M-59.004 0h75.142v-53.974h-75.142z"/></clipPath><clipPath id="H" clipPathUnits="userSpaceOnUse"><path d="M0 0h712.328v399.988H0Z"/></clipPath><clipPath id="J" clipPathUnits="userSpaceOnUse"><path d="M-376.323 226.693h534.246V-73.298h-534.246Z"/></clipPath><clipPath id="K" clipPathUnits="userSpaceOnUse"><path d="M-426.987 234.846h534.246V-65.145h-534.246Z"/></clipPath><clipPath id="L" clipPathUnits="userSpaceOnUse"><path d="M-453.064 246.648H81.182V-53.343h-534.246Z"/></clipPath><clipPath id="M" clipPathUnits="userSpaceOnUse"><path d="M-185.397 257.112h534.246V-42.88h-534.246Z"/></clipPath><clipPath id="N" clipPathUnits="userSpaceOnUse"><path d="M-196.97 251.325h534.247v-299.99H-196.97Z"/></clipPath><clipPath id="O" clipPathUnits="userSpaceOnUse"><path d="M-222.423 260.105h534.246V-39.886h-534.246Z"/></clipPath><clipPath id="P" clipPathUnits="userSpaceOnUse"><path d="M-240.528 255.726h534.246V-44.265h-534.246Z"/></clipPath><clipPath id="Q" clipPathUnits="userSpaceOnUse"><path d="M-271.99 260.105h534.247V-39.886H-271.99Z"/></clipPath><clipPath id="R" clipPathUnits="userSpaceOnUse"><path d="M-284.087 265.781h534.246v-299.99h-534.246Z"/></clipPath><clipPath id="S" clipPathUnits="userSpaceOnUse"><path d="M-297.398 257.112h534.246V-42.88h-534.246Z"/></clipPath><clipPath id="T" clipPathUnits="userSpaceOnUse"><path d="M-308.97 251.325h534.246v-299.99H-308.97Z"/></clipPath><clipPath id="U" clipPathUnits="userSpaceOnUse"><path d="M-334.424 260.105h534.246V-39.886h-534.246Z"/></clipPath><clipPath id="V" clipPathUnits="userSpaceOnUse"><path d="M-343.421 255.726h534.246V-44.265h-534.246Z"/></clipPath><clipPath id="W" clipPathUnits="userSpaceOnUse"><path d="M-366.828 257.112h534.246V-42.88h-534.246Z"/></clipPath><clipPath id="X" clipPathUnits="userSpaceOnUse"><path d="M-383.439 265.715h534.246v-299.99h-534.246Z"/></clipPath><clipPath id="Y" clipPathUnits="userSpaceOnUse"><path d="M-404.427 261.05H129.82V-38.94h-534.246Z"/></clipPath><clipPath id="Z" clipPathUnits="userSpaceOnUse"><path d="M-421.917 260.105h534.246V-39.886h-534.246Z"/></clipPath><clipPath id="aa" clipPathUnits="userSpaceOnUse"><path d="M-431.332 257.112h534.246V-42.88h-534.246Z"/></clipPath><clipPath id="ab" clipPathUnits="userSpaceOnUse"><path d="M-442.903 251.325H91.343v-299.99h-534.246Z"/></clipPath><clipPath id="ac" clipPathUnits="userSpaceOnUse"><path d="M-468.359 260.105H65.887V-39.886h-534.246Z"/></clipPath><clipPath id="ad" clipPathUnits="userSpaceOnUse"><path d="M-477.356 255.726H56.89V-44.265h-534.246Z"/></clipPath><clipPath id="ae" clipPathUnits="userSpaceOnUse"><path d="M-490.599 251.325H43.647v-299.99h-534.246Z"/></clipPath><clipPath id="af" clipPathUnits="userSpaceOnUse"><path d="M-273.753 206.054h534.246V-93.937h-534.246Z"/></clipPath><clipPath id="ag" clipPathUnits="userSpaceOnUse"><path d="M-111.926 178.727H422.32v-299.991h-534.246Z"/></clipPath><clipPath id="ah" clipPathUnits="userSpaceOnUse"><path d="M-110.17 172.72h534.247v-299.99H-110.17Z"/></clipPath><clipPath id="ai" clipPathUnits="userSpaceOnUse"><path d="M-245.986 158.765H288.26v-299.991h-534.246Z"/></clipPath><clipPath id="aj" clipPathUnits="userSpaceOnUse"><path d="M-247.742 164.77h534.246v-299.99h-534.246Z"/></clipPath><clipPath id="ak" clipPathUnits="userSpaceOnUse"><path d="M-281.268 174.485h534.246v-299.991h-534.246Z"/></clipPath><clipPath id="al" clipPathUnits="userSpaceOnUse"><path d="M-283.025 180.49H251.22v-299.991h-534.246Z"/></clipPath></defs><path d="M0 0c-21.235 0-38.511-17.276-38.511-38.512l.001-.076.037-2.681-2.647-.431c-9.143-1.486-17.522-6.198-23.591-13.269a39.48 39.48 0 0 1-9.512-25.705c0-21.775 17.715-39.491 39.49-39.491H93.03c21.775 0 39.49 17.716 39.49 39.491 0 21.776-17.715 39.491-39.49 39.491-3.244 0-6.475-.396-9.604-1.177l-2.5-.625-1.078 2.341c-5.272 11.451-16.819 18.85-29.419 18.85-3.975 0-7.862-.714-11.549-2.123l-2.709-1.035-1.221 2.631C28.658-8.762 14.938 0 0 0m93.03-126.384H-34.733c-25.204 0-45.709 20.506-45.709 45.71A45.7 45.7 0 0 0-69.43-50.918a45.77 45.77 0 0 0 24.767 14.867C-43.38-12.527-23.837 6.219 0 6.219c16.412 0 31.556-9.104 39.331-23.417a38.5 38.5 0 0 0 11.098 1.623c14.175 0 27.232-7.855 33.937-20.212a46 46 0 0 0 8.664.823c25.204 0 45.709-20.506 45.709-45.71s-20.505-45.71-45.709-45.71" clip-path="url(#a)" style="fill:#a1d9f8;fill-opacity:1;fill-rule:nonzero;stroke:none" transform="matrix(1.33333 0 0 -1.33333 189.264 101.58)"/><path d="M0 0h-149.755l-14.091 52.705H0Z" clip-path="url(#b)" style="fill:#fff;fill-opacity:1;fill-rule:nonzero;stroke:none" transform="matrix(1.33333 0 0 -1.33333 395.976 280.455)"/><path d="M0 0c0-11.223-9.098-20.321-20.321-20.321-11.222 0-20.32 9.098-20.32 20.321s9.098 20.321 20.32 20.321C-9.098 20.321 0 11.223 0 0" clip-path="url(#c)" style="fill:#e3000f;fill-opacity:1;fill-rule:nonzero;stroke:none" transform="matrix(1.33333 0 0 -1.33333 222.28 27.095)"/><path d="M0 0c10.714 0 11.205-5.48 11.205-5.48v-6.165h-22.41v6.165S-10.714 0 0 0" clip-path="url(#d)" style="fill:#fff;fill-opacity:1;fill-rule:nonzero;stroke:none" transform="matrix(1.33333 0 0 -1.33333 195.186 26.815)"/><path d="M0 0a7.443 7.443 0 1 0-14.886 0A7.443 7.443 0 0 0 0 0" clip-path="url(#e)" style="fill:#fff;fill-opacity:1;fill-rule:nonzero;stroke:#e3000f;stroke-width:1.353;stroke-linecap:butt;stroke-linejoin:miter;stroke-miterlimit:10;stroke-dasharray:none;stroke-opacity:1" transform="matrix(1.33333 0 0 -1.33333 205.11 18.443)"/><path d="M0 0c0-8.978-7.278-16.256-16.257-16.256-8.978 0-16.257 7.278-16.257 16.256s7.279 16.257 16.257 16.257S0 8.979 0 0" clip-path="url(#f)" style="fill:#009ee3;fill-opacity:1;fill-rule:nonzero;stroke:none" transform="matrix(1.33333 0 0 -1.33333 483.353 170.351)"/><path d="M0 0c8.571 0 8.964-4.384 8.964-4.384v-4.931H-8.964v4.931S-8.571 0 0 0" clip-path="url(#g)" style="fill:#fff;fill-opacity:1;fill-rule:nonzero;stroke:none" transform="matrix(1.33333 0 0 -1.33333 461.677 170.127)"/><path d="M0 0a5.955 5.955 0 1 0-11.91 0A5.955 5.955 0 0 0 0 0" clip-path="url(#h)" style="fill:#fff;fill-opacity:1;fill-rule:nonzero;stroke:#009ee3;stroke-width:1.083;stroke-linecap:butt;stroke-linejoin:miter;stroke-miterlimit:10;stroke-dasharray:none;stroke-opacity:1" transform="matrix(1.33333 0 0 -1.33333 469.616 163.43)"/><path d="M0 0c0-11.223-9.098-20.32-20.321-20.32-11.222 0-20.32 9.097-20.32 20.32s9.098 20.321 20.32 20.321C-9.098 20.321 0 11.223 0 0" clip-path="url(#i)" style="fill:#94c11c;fill-opacity:1;fill-rule:nonzero;stroke:none" transform="matrix(1.33333 0 0 -1.33333 68.764 265.506)"/><path d="M0 0c10.714 0 11.205-5.479 11.205-5.479v-6.166h-22.41v6.166S-10.714 0 0 0" clip-path="url(#j)" style="fill:#fff;fill-opacity:1;fill-rule:nonzero;stroke:none" transform="matrix(1.33333 0 0 -1.33333 41.67 265.226)"/><path d="M0 0a7.443 7.443 0 1 0-14.886.002A7.443 7.443 0 0 0 0 0" clip-path="url(#k)" style="fill:#fff;fill-opacity:1;fill-rule:nonzero;stroke:#94c11c;stroke-width:1.353;stroke-linecap:butt;stroke-linejoin:miter;stroke-miterlimit:10;stroke-dasharray:none;stroke-opacity:1" transform="matrix(1.33333 0 0 -1.33333 51.594 256.855)"/><path d="M0 0c0-13.467-10.917-24.385-24.385-24.385S-48.77-13.467-48.77 0s10.917 24.385 24.385 24.385S0 13.468 0 0" clip-path="url(#l)" style="fill:#f39100;fill-opacity:1;fill-rule:nonzero;stroke:none" transform="matrix(1.33333 0 0 -1.33333 118.858 72.138)"/><path d="M0 0c12.857 0 13.446-6.576 13.446-6.576v-7.398h-26.891v7.398S-12.857 0 0 0" clip-path="url(#m)" style="fill:#fff;fill-opacity:1;fill-rule:nonzero;stroke:none" transform="matrix(1.33333 0 0 -1.33333 86.344 71.802)"/><path d="M0 0a8.932 8.932 0 1 0-17.864 0A8.932 8.932 0 0 0 0 0" clip-path="url(#n)" style="fill:#fff;fill-opacity:1;fill-rule:nonzero;stroke:#f39100;stroke-width:1.624;stroke-linecap:butt;stroke-linejoin:miter;stroke-miterlimit:10;stroke-dasharray:none;stroke-opacity:1" transform="matrix(1.33333 0 0 -1.33333 98.253 61.756)"/><path d="M0 0c0-8.979-7.278-16.257-16.256-16.257S-32.513-8.979-32.513 0c0 8.978 7.278 16.256 16.257 16.256C-7.278 16.256 0 8.978 0 0" clip-path="url(#o)" style="fill:#941981;fill-opacity:1;fill-rule:nonzero;stroke:none" transform="matrix(1.33333 0 0 -1.33333 296.008 84.047)"/><path d="M0 0c8.571 0 8.964-4.384 8.964-4.384v-4.931H-8.964v4.931S-8.571 0 0 0" clip-path="url(#p)" style="fill:#fff;fill-opacity:1;fill-rule:nonzero;stroke:none" transform="matrix(1.33333 0 0 -1.33333 274.333 83.823)"/><path d="M0 0a5.954 5.954 0 1 0-11.909 0A5.954 5.954 0 0 0 0 0" clip-path="url(#q)" style="fill:#fff;fill-opacity:1;fill-rule:nonzero;stroke:#941981;stroke-width:1.083;stroke-linecap:butt;stroke-linejoin:miter;stroke-miterlimit:10;stroke-dasharray:none;stroke-opacity:1" transform="matrix(1.33333 0 0 -1.33333 282.272 77.126)"/><path d="M0 0c0-12.345-10.008-22.353-22.353-22.353S-44.706-12.345-44.706 0s10.008 22.353 22.353 22.353S0 12.345 0 0" clip-path="url(#r)" style="fill:#2f2483;fill-opacity:1;fill-rule:nonzero;stroke:none" transform="matrix(1.33333 0 0 -1.33333 416.34 115.562)"/><path d="M0 0c11.785 0 12.325-6.028 12.325-6.028v-6.781h-24.65v6.781S-11.786 0 0 0" clip-path="url(#s)" style="fill:#fff;fill-opacity:1;fill-rule:nonzero;stroke:none" transform="matrix(1.33333 0 0 -1.33333 386.537 115.254)"/><path d="M0 0a8.187 8.187 0 1 0-8.187 8.187A8.187 8.187 0 0 0 0 0" clip-path="url(#t)" style="fill:#fff;fill-opacity:1;fill-rule:nonzero;stroke:#2f2483;stroke-width:1.489;stroke-linecap:butt;stroke-linejoin:miter;stroke-miterlimit:10;stroke-dasharray:none;stroke-opacity:1" transform="matrix(1.33333 0 0 -1.33333 397.452 106.045)"/><path d="M0 0c0-8.978-7.278-16.256-16.257-16.256-8.978 0-16.256 7.278-16.256 16.256s7.278 16.257 16.256 16.257S0 8.979 0 0" clip-path="url(#u)" style="fill:#fc0;fill-opacity:1;fill-rule:nonzero;stroke:none" transform="matrix(1.33333 0 0 -1.33333 43.35 168.714)"/><path d="M0 0c8.572 0 8.964-4.384 8.964-4.384v-4.931H-8.963v4.931S-8.571 0 0 0" clip-path="url(#v)" style="fill:#fff;fill-opacity:1;fill-rule:nonzero;stroke:none" transform="matrix(1.33333 0 0 -1.33333 21.675 168.49)"/><path d="M0 0a5.954 5.954 0 0 0-5.955-5.954 5.954 5.954 0 1 0 0 11.908A5.954 5.954 0 0 0 0 0" clip-path="url(#w)" style="fill:#fff;fill-opacity:1;fill-rule:nonzero;stroke:#fc0;stroke-width:1.083;stroke-linecap:butt;stroke-linejoin:miter;stroke-miterlimit:10;stroke-dasharray:none;stroke-opacity:1" transform="matrix(1.33333 0 0 -1.33333 29.614 161.793)"/><path d="M0 0v-46.694" clip-path="url(#x)" style="fill:none;stroke:#e3000f;stroke-width:1.72;stroke-linecap:butt;stroke-linejoin:miter;stroke-miterlimit:10;stroke-dasharray:none;stroke-opacity:1" transform="matrix(1.33333 0 0 -1.33333 195.186 62.298)"/><path d="m0 0 6.005-10.399L12.01 0Z" clip-path="url(#y)" style="fill:#e3000f;fill-opacity:1;fill-rule:nonzero;stroke:none" transform="matrix(1.33333 0 0 -1.33333 187.18 122.213)"/><path d="M0 0v18.217h-56.925v15.375" clip-path="url(#z)" style="fill:none;stroke:#f39100;stroke-width:1.72;stroke-linecap:butt;stroke-linejoin:miter;stroke-miterlimit:10;stroke-dasharray:none;stroke-opacity:1" transform="matrix(1.33333 0 0 -1.33333 162.244 157.388)"/><path d="m0 0-6.005-10.399L-12.011 0Z" clip-path="url(#A)" style="fill:#f39100;fill-opacity:1;fill-rule:nonzero;stroke:none" transform="matrix(1.33333 0 0 -1.33333 170.25 155.045)"/><path d="M0 0v24.167h25.038v27.895" clip-path="url(#B)" style="fill:none;stroke:#941981;stroke-width:1.72;stroke-linecap:butt;stroke-linejoin:miter;stroke-miterlimit:10;stroke-dasharray:none;stroke-opacity:1" transform="matrix(1.33333 0 0 -1.33333 238.796 182.014)"/><path d="m0 0-6.005-10.399L-12.011 0Z" clip-path="url(#C)" style="fill:#941981;fill-opacity:1;fill-rule:nonzero;stroke:none" transform="matrix(1.33333 0 0 -1.33333 246.803 179.67)"/><path d="M0 0v-44.23h-42.571v17.155h-11.648" clip-path="url(#D)" style="fill:none;stroke:#94c11c;stroke-width:1.72;stroke-linecap:butt;stroke-linejoin:miter;stroke-miterlimit:10;stroke-dasharray:none;stroke-opacity:1" transform="matrix(1.33333 0 0 -1.33333 146.728 230.041)"/><path d="m0 0 6.005 10.399L12.01 0Z" clip-path="url(#E)" style="fill:#94c11c;fill-opacity:1;fill-rule:nonzero;stroke:none" transform="matrix(1.33333 0 0 -1.33333 138.722 232.384)"/><g clip-path="url(#F)" transform="translate(-38.02 -38.098)"><path d="m0 0-6.654-24.488L-13.308 0h-16.25l-6.653-24.488L-42.865 0h-16.138l14.665-53.974h16.253l6.652 24.483 6.653-24.483H1.473L16.138 0Z" clip-path="url(#G)" style="fill:#009ee3;fill-opacity:1;fill-rule:nonzero;stroke:none" transform="matrix(1.33333 0 0 -1.33333 306.103 256.899)"/></g><g clip-path="url(#H)" transform="translate(-38.02 -38.098)"><path d="m0 0-6.654-24.488L-13.308 0h-16.25l-6.654-24.488L-42.865 0h-16.139l14.666-53.974h16.253l6.652 24.483 6.653-24.483H1.473L16.138 0Z" clip-path="url(#I)" style="fill:#009ee3;fill-opacity:1;fill-rule:nonzero;stroke:none" transform="matrix(1.33333 0 0 -1.33333 480.96 256.899)"/></g><path d="m0 0 3.537 13h21.948L21.948 0Z" clip-path="url(#J)" style="fill:#fc0;fill-opacity:1;fill-rule:nonzero;stroke:none" transform="matrix(1.33333 0 0 -1.33333 463.745 264.158)"/><path d="M0 0c4.246 0 6.995.864 8.108 5.038 1.055 3.958-1.444 5.109-5.402 5.109h-6.189L-6.188 0Zm5.545 20.798c3.383 0 6.069 1.439 6.972 4.822.881 3.311-1.038 4.75-4.419 4.75h-6.19l-2.552-9.572zm-16.179 21.375h26.412c10.363 0 15.707-4.247 12.945-14.611-1.209-4.533-4.188-8.418-9.394-10.938 3.997-2.015 6.056-5.9 4.463-11.874C20.723-6.765 12.614-11.803 1.1-11.803h-26.123z" clip-path="url(#K)" style="fill:#fc0;fill-opacity:1;fill-rule:nonzero;stroke:none" transform="matrix(1.33333 0 0 -1.33333 531.297 275.03)"/><path d="m0 0 14.453 53.975h38.215l-3.147-11.803H26.995l-2.398-8.996h19.718l-3.146-11.803H21.45l-3.033-9.571h23.582L38.853-.001Z" clip-path="url(#L)" style="fill:#fc0;fill-opacity:1;fill-rule:nonzero;stroke:none" transform="matrix(1.33333 0 0 -1.33333 566.065 290.765)"/><path d="M0 0h-1.452v1.254H.021v3.19h1.475v-3.19h2.773V0H1.496v-5.501c0-2.597 1.65-2.927 2.486-2.927.308 0 .506.044.506.044v-1.342s-.242-.044-.637-.044C2.574-9.77 0-9.352 0-5.655Z" clip-path="url(#M)" style="fill:#009ee3;fill-opacity:1;fill-rule:nonzero;stroke:none" transform="matrix(1.33333 0 0 -1.33333 209.177 304.717)"/><path d="M0 0h1.496v-5.984c0-.506-.044-.903-.044-.903h.044c.418 1.057 1.892 2.751 4.4 2.751 2.729 0 3.697-1.562 3.697-4.291v-7.041H8.097v6.645c0 1.738-.264 3.279-2.399 3.279-1.892 0-3.52-1.299-4.026-3.146-.132-.441-.176-.947-.176-1.475v-5.303H0Z" clip-path="url(#N)" style="fill:#009ee3;fill-opacity:1;fill-rule:nonzero;stroke:none" transform="matrix(1.33333 0 0 -1.33333 224.606 297.002)"/><path d="M0 0c-.088 2.311-1.496 3.389-3.146 3.389-1.849 0-3.456-1.166-3.807-3.389Zm-3.103 4.644c3.059 0 4.621-2.355 4.621-5.106 0-.264-.044-.769-.044-.769H-7.02C-6.953-4.07-5.018-5.61-2.729-5.61-.704-5.61.638-4.269.638-4.269l.682-1.143s-1.606-1.54-4.092-1.54c-3.301 0-5.788 2.376-5.788 5.786 0 3.631 2.464 5.81 5.457 5.81" clip-path="url(#O)" style="fill:#009ee3;fill-opacity:1;fill-rule:nonzero;stroke:none" transform="matrix(1.33333 0 0 -1.33333 258.545 308.708)"/><path d="M0 0h1.584l2.685-8.251c.175-.528.33-1.188.33-1.188h.044s.154.66.33 1.188L7.701-.044h1.475l2.727-8.207c.177-.528.33-1.188.33-1.188h.044s.155.638.33 1.188L15.292 0h1.584l-3.74-11.067h-1.628L8.802-3.19a13 13 0 0 0-.353 1.188h-.044s-.154-.639-.33-1.188l-2.706-7.877H3.74Z" clip-path="url(#P)" style="fill:#009ee3;fill-opacity:1;fill-rule:nonzero;stroke:none" transform="matrix(1.33333 0 0 -1.33333 282.685 302.87)"/><path d="M0 0c-.088 2.311-1.496 3.389-3.146 3.389-1.849 0-3.455-1.166-3.807-3.389Zm-3.103 4.644c3.059 0 4.621-2.355 4.621-5.106 0-.264-.044-.769-.044-.769h-8.493c.066-2.839 2.002-4.379 4.29-4.379C-.704-5.61.638-4.269.638-4.269l.682-1.143s-1.606-1.54-4.092-1.54c-3.301 0-5.787 2.376-5.787 5.786 0 3.631 2.464 5.81 5.456 5.81" clip-path="url(#Q)" style="fill:#009ee3;fill-opacity:1;fill-rule:nonzero;stroke:none" transform="matrix(1.33333 0 0 -1.33333 324.633 308.708)"/><path d="M0 0c2.112 0 3.389 2.201 3.389 4.115v.484h-.638c-1.738 0-5.215-.066-5.215-2.508C-2.464 1.057-1.649 0 0 0m2.772 5.831h.617v.286c0 2.135-1.166 2.861-2.75 2.861-1.826 0-3.125-1.056-3.125-1.056l-.704 1.143S-1.738 10.32.749 10.32c2.662 0 4.136-1.474 4.136-4.247v-7.085h-1.43v1.21c0 .551.044.925.044.925h-.044S2.531-1.275-.241-1.275c-1.849 0-3.763 1.078-3.763 3.278 0 3.74 4.862 3.828 6.776 3.828" clip-path="url(#R)" style="fill:#009ee3;fill-opacity:1;fill-rule:nonzero;stroke:none" transform="matrix(1.33333 0 0 -1.33333 340.763 316.277)"/><path d="M0 0h-1.452v1.254H.021v3.19h1.475v-3.19h2.773V0H1.496v-5.501c0-2.597 1.65-2.927 2.486-2.927.308 0 .506.044.506.044v-1.342s-.242-.044-.637-.044C2.574-9.77 0-9.352 0-5.655Z" clip-path="url(#S)" style="fill:#009ee3;fill-opacity:1;fill-rule:nonzero;stroke:none" transform="matrix(1.33333 0 0 -1.33333 358.51 304.717)"/><path d="M0 0h1.496v-5.984c0-.506-.044-.903-.044-.903h.044c.418 1.057 1.892 2.751 4.4 2.751 2.729 0 3.697-1.562 3.697-4.291v-7.041H8.097v6.645c0 1.738-.264 3.279-2.399 3.279-1.892 0-3.52-1.299-4.026-3.146-.132-.441-.176-.947-.176-1.475v-5.303H0Z" clip-path="url(#T)" style="fill:#009ee3;fill-opacity:1;fill-rule:nonzero;stroke:none" transform="matrix(1.33333 0 0 -1.33333 373.94 297.002)"/><path d="M0 0c-.089 2.311-1.497 3.389-3.146 3.389-1.849 0-3.456-1.166-3.807-3.389Zm-3.103 4.644c3.059 0 4.621-2.355 4.621-5.106 0-.264-.044-.769-.044-.769H-7.02C-6.953-4.07-5.017-5.61-2.729-5.61-.704-5.61.638-4.269.638-4.269l.681-1.143s-1.605-1.54-4.091-1.54c-3.301 0-5.788 2.376-5.788 5.786 0 3.631 2.464 5.81 5.457 5.81" clip-path="url(#U)" style="fill:#009ee3;fill-opacity:1;fill-rule:nonzero;stroke:none" transform="matrix(1.33333 0 0 -1.33333 407.88 308.708)"/><path d="M0 0h1.474v-1.958c0-.484-.044-.88-.044-.88h.044C2.002-1.166 3.234.11 4.973.11c.307 0 .593-.066.593-.066V-1.43s-.263.044-.549.044c-1.563 0-2.729-1.232-3.213-2.86a7.3 7.3 0 0 1-.308-2.156v-4.665H0Z" clip-path="url(#V)" style="fill:#009ee3;fill-opacity:1;fill-rule:nonzero;stroke:none" transform="matrix(1.33333 0 0 -1.33333 419.875 302.87)"/><path d="M0 0h-1.452v1.254H.021v3.19h1.475v-3.19h2.773V0H1.496v-5.501c0-2.597 1.65-2.927 2.486-2.927.308 0 .506.044.506.044v-1.342s-.242-.044-.637-.044C2.574-9.77 0-9.352 0-5.655Z" clip-path="url(#W)" style="fill:#009ee3;fill-opacity:1;fill-rule:nonzero;stroke:none" transform="matrix(1.33333 0 0 -1.33333 451.085 304.717)"/><path d="M0 0c2.377 0 4.312 1.937 4.312 4.511C4.312 7.019 2.377 8.89 0 8.89c-2.376 0-4.312-1.871-4.312-4.379C-4.312 1.937-2.376 0 0 0m0 10.254c3.234 0 5.854-2.465 5.854-5.743 0-3.345-2.62-5.853-5.854-5.853s-5.853 2.508-5.853 5.853c0 3.278 2.619 5.743 5.853 5.743" clip-path="url(#X)" style="fill:#009ee3;fill-opacity:1;fill-rule:nonzero;stroke:none" transform="matrix(1.33333 0 0 -1.33333 473.232 316.188)"/><path d="M0 0c0 3.234-1.54 4.225-3.498 4.225-2.156 0-3.411-1.563-3.411-4.204s1.43-4.356 3.631-4.356C-1.54-4.335 0-3.257 0 0m-3.895-9.021c2.157 0 3.874 1.011 3.874 3.476v1.012c0 .418.043.792.043.792h-.043c-.661-1.232-1.784-1.936-3.5-1.936-2.97 0-4.928 2.354-4.928 5.677s1.826 5.589 4.797 5.589C-.727 5.589 0 3.74 0 3.74h.044s-.022.132-.022.374v1.21h1.453V-5.479c0-3.521-2.597-4.885-5.303-4.885-1.276 0-2.553.33-3.631.881l.572 1.231s1.365-.769 2.992-.769" clip-path="url(#Y)" style="fill:#009ee3;fill-opacity:1;fill-rule:nonzero;stroke:none" transform="matrix(1.33333 0 0 -1.33333 501.216 309.968)"/><path d="M0 0c-.088 2.311-1.496 3.389-3.146 3.389-1.849 0-3.456-1.166-3.807-3.389Zm-3.103 4.644c3.059 0 4.621-2.355 4.621-5.106 0-.264-.044-.769-.044-.769H-7.02C-6.953-4.07-5.018-5.61-2.729-5.61-.704-5.61.638-4.269.638-4.269l.682-1.143s-1.606-1.54-4.092-1.54c-3.301 0-5.788 2.376-5.788 5.786 0 3.631 2.464 5.81 5.457 5.81" clip-path="url(#Z)" style="fill:#009ee3;fill-opacity:1;fill-rule:nonzero;stroke:none" transform="matrix(1.33333 0 0 -1.33333 524.537 308.708)"/><path d="M0 0h-1.452v1.254H.021v3.19h1.475v-3.19h2.773V0H1.496v-5.501c0-2.597 1.65-2.927 2.486-2.927.308 0 .506.044.506.044v-1.342s-.242-.044-.637-.044C2.574-9.77 0-9.352 0-5.655Z" clip-path="url(#aa)" style="fill:#009ee3;fill-opacity:1;fill-rule:nonzero;stroke:none" transform="matrix(1.33333 0 0 -1.33333 537.09 304.717)"/><path d="M0 0h1.496v-5.984c0-.506-.044-.903-.044-.903h.044c.418 1.057 1.892 2.751 4.4 2.751 2.729 0 3.697-1.562 3.697-4.291v-7.041H8.097v6.645c0 1.738-.264 3.279-2.399 3.279-1.892 0-3.52-1.299-4.026-3.146-.132-.441-.176-.947-.176-1.475v-5.303H0Z" clip-path="url(#ab)" style="fill:#009ee3;fill-opacity:1;fill-rule:nonzero;stroke:none" transform="matrix(1.33333 0 0 -1.33333 552.519 297.002)"/><path d="M0 0c-.088 2.311-1.496 3.389-3.146 3.389-1.849 0-3.456-1.166-3.807-3.389Zm-3.103 4.644c3.059 0 4.621-2.355 4.621-5.106 0-.264-.044-.769-.044-.769H-7.02C-6.953-4.07-5.018-5.61-2.729-5.61-.704-5.61.638-4.269.638-4.269l.682-1.143s-1.606-1.54-4.092-1.54c-3.301 0-5.788 2.376-5.788 5.786 0 3.631 2.464 5.81 5.457 5.81" clip-path="url(#ac)" style="fill:#009ee3;fill-opacity:1;fill-rule:nonzero;stroke:none" transform="matrix(1.33333 0 0 -1.33333 586.459 308.708)"/><path d="M0 0h1.474v-1.958c0-.484-.044-.88-.044-.88h.044C2.002-1.166 3.234.11 4.973.11c.307 0 .593-.066.593-.066V-1.43s-.263.044-.549.044c-1.563 0-2.729-1.232-3.213-2.86a7.3 7.3 0 0 1-.308-2.156v-4.665H0Z" clip-path="url(#ad)" style="fill:#009ee3;fill-opacity:1;fill-rule:nonzero;stroke:none" transform="matrix(1.33333 0 0 -1.33333 598.455 302.87)"/><path d="M0 0h1.54l-.066-11.419H.065Zm-.044-13.773H1.65v-1.694H-.044z" clip-path="url(#ae)" style="fill:#009ee3;fill-opacity:1;fill-rule:nonzero;stroke:none" transform="matrix(1.33333 0 0 -1.33333 616.112 297.002)"/><path d="M0 0c-7.809 0-14.139-6.33-14.139-14.139S-7.809-28.277 0-28.277s14.139 6.33 14.139 14.138C14.139-6.33 7.809 0 0 0m28.277-14.139c0-15.617-12.66-28.277-28.277-28.277s-28.277 12.66-28.277 28.277S-15.617 14.139 0 14.139s28.277-12.66 28.277-28.278" clip-path="url(#af)" style="fill:#009ee3;fill-opacity:1;fill-rule:nonzero;stroke:none" transform="matrix(1.33333 0 0 -1.33333 326.985 236.64)"/><path d="M0 0h-36.099v22.854h-8.932" clip-path="url(#ag)" style="fill:none;stroke:#fc0;stroke-width:1.72;stroke-linecap:butt;stroke-linejoin:miter;stroke-miterlimit:10;stroke-dasharray:none;stroke-opacity:1" transform="matrix(1.33333 0 0 -1.33333 111.215 200.204)"/><path d="m0 0 10.399-6.006L0-12.011Z" clip-path="url(#ah)" style="fill:#fc0;fill-opacity:1;fill-rule:nonzero;stroke:none" transform="matrix(1.33333 0 0 -1.33333 108.873 192.196)"/><path d="M0 0h28.361v43.177h14.911" clip-path="url(#ai)" style="fill:none;stroke:#2f2483;stroke-width:1.72;stroke-linecap:butt;stroke-linejoin:miter;stroke-miterlimit:10;stroke-dasharray:none;stroke-opacity:1" transform="matrix(1.33333 0 0 -1.33333 289.961 173.588)"/><path d="m0 0-10.399 6.006L0 12.011Z" clip-path="url(#aj)" style="fill:#2f2483;fill-opacity:1;fill-rule:nonzero;stroke:none" transform="matrix(1.33333 0 0 -1.33333 292.304 181.596)"/><path d="M0 0h55.809v18.147H70.72" clip-path="url(#ak)" style="fill:none;stroke:#009ee3;stroke-width:1.72;stroke-linecap:butt;stroke-linejoin:miter;stroke-miterlimit:10;stroke-dasharray:none;stroke-opacity:1" transform="matrix(1.33333 0 0 -1.33333 337.004 194.548)"/><path d="m0 0-10.399 6.005L0 12.011Z" clip-path="url(#al)" style="fill:#009ee3;fill-opacity:1;fill-rule:nonzero;stroke:none" transform="matrix(1.33333 0 0 -1.33333 339.348 202.554)"/></svg>